<?xml version="1.0" encoding="utf-8"?>
<!-- Generator: Adobe Illustrator 20.1.0, SVG Export Plug-In . SVG Version: 6.00 Build 0)  -->
<svg version="1.1" id="Layer_1" xmlns="http://www.w3.org/2000/svg" xmlns:xlink="http://www.w3.org/1999/xlink" x="0px" y="0px"
	 viewBox="0 0 800 600" style="enable-background:new 0 0 800 600;" xml:space="preserve">
<style type="text/css">
	.st0{fill:#FFFFFF;}
</style>
<g>
	<g>
		<path class="st0" d="M1.278,598.54c0-195.527,0-391.054,0-586.581c266.667,0,533.333,0,800,0c0,195.208,0,390.415,0,585.623
			c-0.495-0.494-1.146-0.937-1.463-1.489c-13.745-23.916-38.477-40.044-67.161-53.388c-21.447-9.978-44.477-17.387-68.234-23.584
			c-3.769-0.983-5.227-2.352-5.218-5.463c0.165-61.337,0.474-122.668,6.56-183.885c2.802-28.187,5.726-56.359,13.945-84.052
			c0.456-1.535-0.866-4.077-2.517-5.14c-11.939-7.687-24.166-15.121-36.32-22.62c-14.895-9.19-29.806-18.366-46.092-28.399
			c0,105.723,0,210.336,0,314.939c-14.498,0.066-15.341-0.526-15.341-9.995c0.001-99.038,0.002-198.076,0.003-297.114
			c0-2.288,0-4.575,0-6.98c-1.516,0.211-1.988,0.18-2.295,0.333c-31.152,15.562-62.318,31.107-93.342,46.811
			c-1.375,0.696-2.198,2.909-1.991,4.309c1.194,8.087,3.359,16.112,4.125,24.214c3.915,41.401,8.079,82.796,11.023,124.239
			c2.356,33.167,3.092,66.399,4.532,99.602c0.073,1.677,0.009,3.358,0.009,5.348c-4.375-0.177-7.766-0.493-11.139-0.407
			c-4.481,0.113-6.051-1.28-5.661-4.592c0.43-3.653,0.557-7.344,0.455-11.012c-1.078-38.629-2.218-77.257-3.368-115.885
			c-0.268-9.019-0.266-9.125-11.665-11.961c-3.783-0.941-5.48-2.237-5.282-5.394c0.349-5.579,0.101-11.178,0.1-16.769
			c-0.001-8.016-0.001-8.009,10.865-8.651c0.802-0.047,1.583-0.291,2.34-0.437c0.231-0.629,0.585-1.087,0.532-1.518
			c-3.332-27.16-4.083-54.545-12.345-81.272c-0.932-3.015,0.051-4.673,3.415-6.24c5.885-2.74,11.528-5.772,18.213-9.159
			c-5.209-1.407-9.421-2.419-13.471-3.714c-1.276-0.408-3.141-1.69-3.005-2.381c1.562-7.959,3.458-15.882,5.382-24.331
			c7.374,1.731,13.367,3.315,19.494,4.511c3.927,0.766,4.944,2.178,4.325,5.133c-1.025,4.897-1.445,9.865-2.141,14.956
			c9.061-2.417,12.383-6.646,13.474-13.357c5.276-32.482,11.225-64.905,17.347-97.306c0.81-4.286-1.988-6.054-5.54-8.17
			c-35.475-21.127-70.916-42.286-106.391-63.413c-1.193-0.71-2.639-1.181-4.71-2.09c0,2.995,0,5.215,0,7.434
			c0.002,148.397,0.004,296.794,0.006,445.192c0,1.438-0.104,2.88,0.016,4.312c0.199,2.378-0.96,3.634-4.369,3.479
			c-2.232-0.101-4.479-0.019-7.279-0.019c0-156.03,0-311.356,0-467.584c-2.971,1.545-5.065,2.538-7.021,3.665
			c-24.123,13.895-48.22,27.816-72.336,41.718c-15.687,9.043-31.486,17.98-46.988,27.198c-2.26,1.344-4.696,4.115-4.42,6.01
			c2.014,13.803,5.712,27.503,6.867,41.33c0.972,11.633,7.231,19.676,20.636,25.109c4.147,1.68,7.817,4.021,12.572,6.513
			c0-6.47-0.137-11.885,0.095-17.291c0.059-1.375,0.826-3.556,2.064-3.946c7.933-2.5,16.088-4.605,25.009-7.071
			c0,6.909-0.317,12.97,0.111,19c0.287,4.039-1.162,6.559-6.445,8.115c-4.448,1.31-8.483,3.41-13.457,5.475
			c8.716,4.951,16.688,9.669,24.952,14.08c3.273,1.747,3.946,3.294,3.067,6.329c-4.38,15.117-9.517,30.2-12.05,45.512
			c-6.943,41.973-12.937,84.037-18.825,126.104c-1.906,13.62-3.446,27.37-3.171,41.039c0.52,25.859,2.483,51.701,3.804,77.551
			c0.053,1.044-0.331,2.101-0.565,3.465c-7.258,0.465-14.152,0.907-21.334,1.367c-0.258-1.404-0.648-2.333-0.564-3.236
			c2.369-25.483,4.366-50.99,7.289-76.438c4.749-41.355,9.24-82.745,15.512-123.977c4.312-28.346,11.232-56.477,17.556-84.632
			c0.991-4.413,0.264-6.846-4.551-9.496c-29.487-16.226-58.744-32.686-88.102-49.044c-2.73-1.521-5.634-2.866-9.259-4.698
			c0,2.474,0,3.904,0,5.334c0,114.852,0,229.704-0.002,344.556c0,1.757,0.259,3.549-0.126,5.258
			c-0.24,1.066-1.218,2.656-2.295,2.888c-3.931,0.847-8.043,1.221-13.229,1.93c0-120.313,0-239.635,0-359.71
			c-2.199,0.967-3.299,1.356-4.26,1.887c-13.519,7.472-27.022,14.962-40.525,22.451c-17.779,9.861-35.534,19.746-53.35,29.569
			c-2.813,1.551-4.068,2.943-2.981,5.913c9.396,25.66,13.299,52.054,16.724,78.397c4.586,35.271,8.275,70.629,11.018,106.007
			c3.226,41.605,4.997,83.273,7.503,124.911c0.17,2.826-0.94,4.299-4.616,5.294c-9.798,2.652-19.531,5.466-29.124,8.51
			c-24.399,7.743-47.257,17.494-68.089,29.846C28.953,568.823,13.133,582.403,1.278,598.54z"/>
		<path d="M1.278,598.54c11.855-16.137,27.675-29.717,46.915-41.127c20.832-12.353,43.69-22.103,68.089-29.846
			c9.593-3.044,19.326-5.858,29.124-8.51c3.676-0.995,4.786-2.468,4.616-5.294c-2.506-41.637-4.278-83.306-7.503-124.911
			c-2.743-35.379-6.432-70.736-11.018-106.007c-3.425-26.344-7.328-52.738-16.724-78.397c-1.088-2.97,0.168-4.362,2.981-5.913
			c17.816-9.823,35.572-19.708,53.35-29.569c13.503-7.489,27.005-14.979,40.525-22.451c0.961-0.531,2.062-0.921,4.26-1.887
			c0,120.076,0,239.397,0,359.71c5.186-0.709,9.298-1.083,13.229-1.93c1.077-0.232,2.054-1.822,2.295-2.888
			c0.386-1.709,0.126-3.501,0.126-5.258c0.001-114.852,0.002-229.704,0.002-344.556c0-1.43,0-2.861,0-5.334
			c3.625,1.832,6.529,3.177,9.259,4.698c29.358,16.357,58.615,32.818,88.102,49.044c4.815,2.649,5.542,5.083,4.551,9.496
			c-6.324,28.155-13.245,56.287-17.556,84.632c-6.272,41.232-10.762,82.622-15.512,123.977c-2.923,25.448-4.92,50.955-7.289,76.438
			c-0.084,0.904,0.305,1.832,0.564,3.236c7.182-0.46,14.076-0.902,21.334-1.367c0.234-1.365,0.618-2.421,0.565-3.465
			c-1.321-25.85-3.284-51.692-3.804-77.551c-0.275-13.668,1.265-27.419,3.171-41.039c5.888-42.066,11.882-84.131,18.825-126.104
			c2.533-15.312,7.67-30.395,12.05-45.512c0.88-3.036,0.206-4.582-3.067-6.329c-8.264-4.411-16.236-9.129-24.952-14.08
			c4.974-2.065,9.009-4.165,13.457-5.475c5.283-1.556,6.732-4.076,6.445-8.115c-0.428-6.031-0.111-12.091-0.111-19
			c-8.921,2.467-17.076,4.571-25.009,7.071c-1.238,0.39-2.005,2.571-2.064,3.946c-0.233,5.406-0.095,10.821-0.095,17.291
			c-4.754-2.492-8.425-4.832-12.572-6.513c-13.405-5.432-19.664-13.475-20.636-25.109c-1.155-13.827-4.852-27.527-6.867-41.33
			c-0.277-1.895,2.16-4.666,4.42-6.01c15.502-9.218,31.301-18.155,46.988-27.198c24.116-13.902,48.213-27.823,72.336-41.718
			c1.956-1.127,4.05-2.12,7.021-3.665c0,156.228,0,311.553,0,467.584c2.8,0,5.047-0.082,7.279,0.019
			c3.408,0.155,4.567-1.101,4.369-3.479c-0.12-1.432-0.015-2.874-0.016-4.312c-0.002-148.397-0.004-296.794-0.006-445.192
			c0-2.219,0-4.439,0-7.434c2.072,0.909,3.518,1.38,4.71,2.09c35.475,21.127,70.916,42.287,106.391,63.413
			c3.552,2.116,6.35,3.884,5.54,8.17c-6.122,32.4-12.071,64.823-17.347,97.306c-1.09,6.711-4.413,10.94-13.474,13.357
			c0.696-5.09,1.116-10.058,2.141-14.956c0.619-2.954-0.398-4.366-4.325-5.133c-6.127-1.196-12.12-2.78-19.494-4.511
			c-1.925,8.449-3.82,16.372-5.382,24.331c-0.136,0.691,1.729,1.973,3.005,2.381c4.05,1.295,8.261,2.306,13.471,3.714
			c-6.685,3.386-12.328,6.418-18.213,9.159c-3.365,1.567-4.348,3.225-3.415,6.24c8.262,26.727,9.013,54.112,12.345,81.272
			c0.053,0.431-0.301,0.889-0.532,1.518c-0.757,0.146-1.538,0.39-2.34,0.437c-10.866,0.642-10.865,0.636-10.865,8.651
			c0.001,5.591,0.249,11.19-0.1,16.769c-0.198,3.157,1.499,4.453,5.282,5.394c11.399,2.836,11.397,2.943,11.665,11.961
			c1.149,38.628,2.289,77.256,3.368,115.885c0.102,3.669-0.025,7.359-0.455,11.012c-0.389,3.312,1.181,4.706,5.661,4.592
			c3.373-0.085,6.764,0.23,11.139,0.407c0-1.99,0.063-3.671-0.009-5.348c-1.44-33.203-2.176-66.435-4.532-99.602
			c-2.943-41.443-7.108-82.838-11.023-124.239c-0.766-8.103-2.932-16.127-4.125-24.214c-0.207-1.4,0.616-3.613,1.991-4.309
			c31.024-15.704,62.19-31.25,93.342-46.811c0.307-0.154,0.779-0.122,2.295-0.333c0,2.405,0,4.693,0,6.98
			c-0.001,99.038-0.002,198.076-0.003,297.114c0,9.469,0.843,10.061,15.341,9.995c0-104.603,0-209.216,0-314.939
			c16.286,10.034,31.198,19.209,46.092,28.399c12.153,7.499,24.381,14.933,36.32,22.62c1.651,1.063,2.972,3.605,2.517,5.14
			c-8.219,27.693-11.143,55.865-13.945,84.052c-6.086,61.217-6.396,122.548-6.56,183.885c-0.008,3.11,1.449,4.48,5.218,5.463
			c23.757,6.197,46.788,13.606,68.234,23.584c28.684,13.345,53.416,29.472,67.161,53.388c0.317,0.551,0.968,0.995,1.463,1.489
			c0,0.639,0,1.278,0,1.917c-2.978,0.041-5.956,0.119-8.935,0.119c-259.009,0.005-518.018,0.004-777.026-0.003
			c-4.68,0-9.359-0.076-14.039-0.116C1.278,599.179,1.278,598.859,1.278,598.54z M384.821,81.69
			c-9.527,3.206-17.646,5.875-25.66,8.709c-1.103,0.39-2.387,1.6-2.402,2.442c-0.168,9.659-0.107,19.319-0.107,29.826
			c9.445-2.692,17.756-4.987,25.954-7.49c1.041-0.318,2.107-1.72,2.121-2.628C384.878,102.688,384.821,92.824,384.821,81.69z
			 M431.058,81.709c0,10.622-0.043,19.942,0.077,29.26c0.01,0.792,0.84,1.942,1.737,2.306c8.663,3.515,17.421,6.897,27.409,10.809
			c0-10.193,0.027-19.201-0.052-28.209c-0.006-0.709-0.485-1.756-1.197-2.07C450.211,89.907,441.306,86.115,431.058,81.709z
			 M509.557,140.034c1.403-9.152,2.728-17.334,3.805-25.534c0.106-0.808-1.028-2.148-2.057-2.532
			c-8.712-3.248-17.534-6.33-27.362-9.833c-1.151,9.807-2.289,19.094-3.227,28.391c-0.065,0.645,1.172,1.733,2.118,2.008
			C491.278,134.994,499.791,137.317,509.557,140.034z M480.394,144.331c-1.029,10.553-2.029,20.34-2.843,30.136
			c-0.058,0.698,1.036,1.842,1.956,2.13c7.169,2.247,14.427,4.334,22.694,6.777c1.829-10.102,3.566-19.375,5.091-28.668
			c0.139-0.845-0.784-2.341-1.726-2.647C497.634,149.485,489.584,147.117,480.394,144.331z M310.357,140.033
			c8.926-2.645,16.844-4.902,24.626-7.398c1.083-0.347,2.3-1.976,2.095-2.828c-2.098-8.713-4.477-17.388-6.968-26.792
			c-9.134,3.542-17.603,6.73-25.89,10.167c-0.971,0.403-1.561,2.277-1.263,3.293C305.183,124.07,307.677,131.62,310.357,140.033z
			 M384.858,127.146c-6.171,2.381-11.165,4.689-16.535,6.282c-6.367,1.889-9.312,4.663-8.561,10.059
			c0.703,5.049,0.145,10.196,0.143,15.3c-0.001,2.918,0,5.837,0,9.815c8.594-3.079,15.701-5.489,22.585-8.216
			c1.258-0.498,2.244-2.284,2.268-3.488C384.94,147.499,384.858,138.096,384.858,127.146z M431.036,126.597
			c0,10.302-0.069,19.374,0.091,28.443c0.019,1.085,0.916,2.727,2.041,3.143c6.755,2.493,13.696,4.703,21.642,7.366
			c0-10.036,0.062-19.073-0.096-28.108c-0.016-0.904-1.087-2.195-2.155-2.625C445.892,132.131,439.086,129.64,431.036,126.597z
			 M431.046,171.385c0,10.613-0.022,19.799,0.042,28.985c0.005,0.739,0.297,1.855,0.967,2.156c7.133,3.207,14.37,6.285,22.777,9.917
			c0-10.207,0.056-19.08-0.081-27.951c-0.015-0.96-0.811-2.302-1.826-2.802C446.246,178.398,439.408,175.289,431.046,171.385z
			 M362.416,256.969c5.615-1.604,9.814-3.145,14.249-3.992c6.812-1.301,8.991-4.283,8.319-9.378
			c-0.584-4.424-0.123-8.925-0.124-13.391c0-3.902,0-7.803,0-12.783c-7.867,2.841-14.328,5.104-20.671,7.542
			c-0.889,0.342-1.689,1.531-1.699,2.334C362.375,236.838,362.416,246.377,362.416,256.969z M384.864,172.275
			c-7.529,2.407-13.752,4.312-19.85,6.421c-1.12,0.388-2.453,1.596-2.468,2.437c-0.173,9.671-0.11,19.344-0.11,29.573
			c2.816-0.58,4.641-0.879,6.399-1.329c16.033-4.099,16.03-4.107,16.03-16.767C384.864,186.151,384.864,179.693,384.864,172.275z
			 M452.491,255.141c0-9.993,0.031-18.749-0.047-27.505c-0.008-0.892-0.302-2.232-1.093-2.598c-6.324-2.922-12.8-5.658-20.308-8.92
			c0,10.526-0.069,19.601,0.092,28.674c0.019,1.066,0.937,2.628,2.071,3.093C439.095,250.3,445.19,252.435,452.491,255.141z
			 M384.827,262.855c-6.082,2.357-11.329,3.995-15.926,6.348c-2.137,1.094-4.138,3.535-4.259,5.435
			c-0.485,7.628-0.24,15.284-0.186,22.929c0.009,1.316,0.404,2.63,0.728,4.594c6.498-2.192,12.127-3.99,17.597-6.029
			c1.014-0.378,1.947-1.728,1.96-2.637C384.879,283.659,384.827,273.821,384.827,262.855z M431.044,305.84
			c0,10.86-0.034,20.222,0.057,29.585c0.008,0.851,0.49,2.029,1.314,2.492c5.328,2.994,10.812,5.832,17.429,9.35
			c0-10.635,0.027-20.109-0.054-29.582c-0.006-0.701-0.533-1.646-1.247-2.058C443.242,312.567,437.832,309.612,431.044,305.84z
			 M449.891,302.449c0-2.493,0-3.951,0-5.409c0.002-6.204,0.125-12.41-0.056-18.61c-0.067-2.295,0.241-5.379-1.507-6.714
			c-4.83-3.687-10.655-6.642-17.298-10.61c0,10.493-0.083,19.387,0.095,28.277c0.025,1.256,0.872,2.911,2.113,3.674
			C438.124,296.064,443.32,298.79,449.891,302.449z M431.073,351.455c0,12.369-0.049,24.118,0.105,35.865
			c0.011,0.835,1.289,2.069,2.374,2.413c3.587,1.136,7.356,1.949,12.023,3.13c0-9.611,0.005-18.344-0.001-27.078
			C445.567,356.182,444.97,355.56,431.073,351.455z M293.073,201.973c-0.615,6.411-1.2,11.767-1.626,17.13
			c-0.596,7.514-0.541,7.505,8.874,9.639c2.846,0.645,5.727,1.246,8.471,2.088c3.468,1.065,5.12,0.287,5.759-2.432
			c1.07-4.546,2.543-9.042,3.432-13.605c0.209-1.075-0.795-2.888-1.984-3.411C308.896,208.26,301.574,205.417,293.073,201.973z
			 M368.066,392.908c4.568-1.789,7.652-3.156,10.906-4.233c4.696-1.555,6.306-4.011,6.01-7.89
			c-0.461-6.039-0.119-12.112-0.118-18.171c0.001-2.749,0-5.498,0-9.398c-6.052,2.952-10.521,5.012-14.778,7.295
			c-1.032,0.554-1.92,1.837-1.934,2.792C368.01,372.825,368.066,382.349,368.066,392.908z M368.091,436.383
			c14.674-2.381,16.773-4.233,16.773-14.203c0-2.704-0.002-5.408-0.003-8.112c0-4.818,0-9.636,0-15.445
			c-5.29,2.191-9.203,3.686-12.924,5.413c-1.498,0.696-3.652,1.883-3.68,2.876C367.982,416.693,368.091,426.478,368.091,436.383z
			 M368.035,347.26c4.523-1.683,7.61-2.999,10.868-4.005c4.489-1.386,6.308-3.536,6.09-7.343
			c-0.428-7.476-0.101-14.975-0.156-22.464c-0.011-1.456-0.339-2.91-0.608-5.07c-5.212,2.36-9.48,4.1-13.425,6.184
			c-1.342,0.709-2.623,2.275-2.65,3.467C367.939,327.402,368.035,336.78,368.035,347.26z M346.877,275.556
			c-4.906,2.022-8.864,3.52-12.618,5.265c-1.497,0.696-3.591,1.914-3.63,2.933c-0.302,7.876-0.166,15.762-0.166,23.964
			c2.639-0.181,4.304-0.279,5.963-0.412c13.671-1.102,13.716-1.106,12.712-11.3C348.486,289.39,347.682,282.782,346.877,275.556z
			 M337.918,394.823c4.062-0.404,7.179-0.941,10.305-0.974c5.135-0.054,6.332-1.999,6.131-5.499
			c-0.32-5.576-0.087-11.17-0.087-16.757c0-3.246,0-6.492,0-10.324c-6.293,0.984-11.235,1.756-16.349,2.555
			C337.918,374.108,337.918,384.096,337.918,394.823z M270.718,353.155c0-6.313,0.045-13.076-0.073-19.837
			c-0.011-0.645-0.857-1.607-1.642-1.866c-5.692-1.88-11.468-3.617-18.373-5.758c0,4.746-0.001,8.37,0,11.994
			c0.004,13.812,0.005,13.813,18.405,16.09C269.206,353.799,269.413,353.647,270.718,353.155z M250.67,394.067
			c0,8.215-0.077,15.369,0.1,22.52c0.022,0.872,1.194,2.266,2.206,2.497c5.591,1.274,11.298,2.262,17.788,3.506
			c0-7.234,0.183-13.6-0.159-19.951c-0.066-1.231-1.84-2.925-3.414-3.499C262.293,397.353,257.111,396,250.67,394.067z
			 M270.647,251.8c0-7.506,0.045-14.269-0.072-21.03c-0.011-0.65-0.835-1.626-1.615-1.883c-5.697-1.88-11.479-3.616-18.33-5.736
			c0,6.348,0.002,11.713-0.001,17.077c-0.004,7.523-0.005,7.521,9.32,9.398C262.993,250.238,266.034,250.862,270.647,251.8z
			 M270.731,388.259c0-7.399,0.089-14.012-0.113-20.62c-0.025-0.826-1.362-1.996-2.473-2.375
			c-5.305-1.808-10.742-3.397-17.381-5.451c0,8.346-0.079,15.891,0.135,23.431c0.019,0.676,1.803,1.67,2.991,1.92
			C258.941,386.225,264.076,387.061,270.731,388.259z M250.874,291.534c0,8.344-0.042,15.907,0.087,23.468
			c0.01,0.56,1.133,1.446,1.942,1.608c5.622,1.126,11.297,2.101,17.834,3.283c0-7.357,0.088-13.863-0.103-20.364
			c-0.026-0.882-1.189-2.169-2.27-2.539C263.029,295.164,257.545,293.583,250.874,291.534z M250.704,189.71
			c0,7.586-0.082,14.861,0.114,22.132c0.022,0.814,1.431,2.081,2.52,2.324c5.422,1.211,10.952,2.149,17.458,3.374
			c0-3.599,0-6.418,0-9.236c-0.001-13.886,0-13.888-17.497-18.465C252.922,189.741,252.474,189.791,250.704,189.71z
			 M270.741,285.833c0-7.37,0.088-13.848-0.103-20.322c-0.026-0.885-1.179-2.171-2.258-2.547
			c-5.464-1.899-11.076-3.559-17.713-5.641c0,8.101-0.101,15.218,0.117,22.329c0.03,0.983,1.386,2.534,2.55,2.806
			C258.704,283.715,264.223,284.611,270.741,285.833z M270.722,456.511c0-7.182,0.059-13.689-0.074-20.194
			c-0.017-0.825-0.764-2.092-1.634-2.385c-5.693-1.92-11.513-3.628-18.353-5.732c0,8.162-0.132,15.311,0.149,22.451
			c0.04,1.022,1.844,2.578,3.233,2.893C259.081,454.689,264.288,455.41,270.722,456.511z M303.735,298.334
			c0.687-7.938,1.444-14.748,1.708-21.569c0.047-1.2-1.596-3.023-3.096-3.563c-4.689-1.69-9.684-2.903-15.581-4.593
			c-0.696,7.512-1.412,14.291-1.838,21.08c-0.052,0.825,1.2,2.061,2.283,2.497C292.214,294.198,297.371,295.995,303.735,298.334z
			 M431.044,403.158c0,10.177-0.054,19.086,0.082,27.992c0.014,0.908,0.872,2.295,1.842,2.623c3.726,1.262,7.658,2.183,12.577,3.521
			c0-10.097,0.058-19.145-0.094-28.191c-0.014-0.85-1.097-2.106-2.119-2.454C439.755,405.43,435.987,404.526,431.044,403.158z
			 M461.851,363.004c0,9.693-0.063,18.853,0.111,28.01c0.015,0.8,1.426,2.093,2.472,2.283c3.82,0.695,7.76,1.02,12.655,1.604
			c0-9.735,0.064-18.748-0.113-27.758c-0.015-0.787-1.445-2.032-2.513-2.249C470.658,364.121,466.726,363.7,461.851,363.004z
			 M297.579,359.714c0-5.047,0.001-9.767,0-14.487c-0.004-10.076-1.369-11.002-14.858-9.291c-1.409,0.179-3.465,1.863-3.527,2.905
			c-0.339,5.71-0.296,11.443-0.003,17.156c0.051,1.004,1.76,2.67,2.953,2.807C286.911,359.355,291.777,359.421,297.579,359.714z
			 M308.368,262.635c0.762-6.933,1.52-13.203,2.046-19.483c0.059-0.705-1.018-1.959-1.865-2.131
			c-6.184-1.25-12.444-2.288-19.364-3.514c0,6.463-0.123,11.856,0.105,17.241c0.045,1.052,1.121,2.624,2.282,3.012
			C296.72,259.477,302.071,260.849,308.368,262.635z M459.947,403.313c0,8.195-0.001,15.601,0,23.007
			c0.001,7.684,3.228,9.953,14.428,9.736c0-8.888,0.076-17.794-0.108-26.697c-0.02-0.977-1.246-2.408-2.416-2.816
			C468.466,405.361,464.825,404.594,459.947,403.313z M657.391,323.728c0-6.142,0.074-11.351-0.077-16.555
			c-0.024-0.81-0.802-2.007-1.689-2.341c-6.291-2.367-12.701-4.556-19.998-7.127c0,6.209-0.09,11.431,0.083,16.649
			c0.031,0.938,0.833,2.347,1.816,2.703C643.737,319.304,650.099,321.315,657.391,323.728z M340.333,407.207
			c0,9.418,0,18.545,0,28.232c3.764,0,7.136,0.194,10.431-0.1c1.237-0.11,3.266-1.339,3.285-2.082
			c0.231-8.681,0.148-17.367,0.148-26.05C349.018,407.207,344.864,407.207,340.333,407.207z M350.035,318.765
			c-5.042,2.048-11.659,3.306-11.918,5.086c-1.158,7.955-0.504,16.058-0.504,24.494c6.018-0.364,10.999-0.665,16.591-1.003
			C352.832,337.936,351.549,329.141,350.035,318.765z M640.11,242.381c0,5.179-0.051,9.439,0.036,13.698
			c0.022,1.064,0.001,2.701,0.827,3.092c6.466,3.057,13.133,5.875,20.83,9.245c0-6.178,0.117-10.954-0.087-15.722
			c-0.048-1.114-0.785-2.771-1.888-3.206C653.704,247.071,647.37,244.954,640.11,242.381z M657.378,295.997
			c0-6.156,0.047-11.341-0.055-16.524c-0.014-0.709-0.515-1.779-1.225-2.056c-6.401-2.5-12.9-4.859-19.702-7.383
			c-2.867,15.019-2.431,15.747,12.855,22.536C651.418,293.533,653.64,294.425,657.378,295.997z M623.569,421.685
			c0-6.514,0.025-12.215-0.038-17.915c-0.006-0.569-0.328-1.443-0.868-1.656c-5.279-2.086-10.635-4.062-16.891-6.415
			c0,6.972-0.076,12.707,0.075,18.438c0.025,0.952,0.718,2.426,1.653,2.742C612.448,418.552,617.573,419.931,623.569,421.685z
			 M605.776,229.342c0,6.661-0.068,12.396,0.065,18.129c0.023,0.992,0.547,2.56,1.439,2.861c5.061,1.704,10.305,3.104,16.319,4.849
			c0-6.414,0.15-11.669-0.115-16.912c-0.059-1.177-1.181-2.826-2.477-3.374C616.439,232.962,611.583,231.415,605.776,229.342z
			 M605.786,451.341c0,6.788-0.116,12.651,0.111,18.507c0.039,1.011,1.239,2.507,2.418,2.891c4.599,1.501,9.406,2.645,15.207,4.21
			c0-6.388,0.077-12.06-0.09-17.727c-0.023-0.771-1.03-1.858-1.978-2.226C616.633,455.125,611.681,453.442,605.786,451.341z
			 M623.53,366.084c0-6.483,0.103-12.153-0.109-17.816c-0.033-0.874-1.262-2.091-2.368-2.509c-4.682-1.771-9.526-3.3-15.233-5.229
			c0,6.673-0.096,12.672,0.107,18.667c0.029,0.86,1.254,2.11,2.341,2.466C612.876,363.171,617.641,364.41,623.53,366.084z
			 M623.571,310.723c0-6.515,0.066-12.047-0.075-17.576c-0.02-0.786-0.783-1.924-1.651-2.277
			c-4.943-2.008-10.023-3.827-16.044-6.079c0,6.984-0.091,12.979,0.106,18.969c0.027,0.828,1.251,2.019,2.317,2.376
			C612.805,307.667,617.534,308.949,623.571,310.723z M623.588,449.475c0-6.515,0.094-12.05-0.092-17.579
			c-0.031-0.918-0.983-2.237-2.018-2.646c-4.797-1.892-9.772-3.529-15.679-5.608c0,6.738-0.125,12.71,0.13,18.672
			c0.04,0.927,1.57,2.205,2.83,2.645C613.127,446.484,617.681,447.71,623.588,449.475z M623.469,393.808
			c0-6.525,0.017-12.34-0.037-18.155c-0.004-0.413-0.388-1.028-0.836-1.203c-5.29-2.06-10.626-4.054-16.821-6.394
			c0,6.821-0.138,12.398,0.112,17.966c0.052,1.163,1.161,2.877,2.423,3.327C612.835,390.961,617.633,392.14,623.469,393.808z
			 M623.598,338.576c0-6.59,0.08-11.979-0.075-17.364c-0.028-0.956-0.69-2.373-1.648-2.762c-4.946-2.011-10.083-3.756-16.095-5.936
			c0,6.754-0.087,12.729,0.094,18.699c0.027,0.888,1.043,2.2,2.069,2.554C612.679,335.4,617.581,336.763,623.598,338.576z
			 M623.578,282.825c0-6.376,0.101-11.898-0.103-17.413c-0.033-0.887-1.156-2.122-2.233-2.553c-4.774-1.912-9.715-3.59-15.465-5.666
			c0,6.648-0.107,12.358,0.095,18.062c0.038,1.072,0.956,2.702,2.068,3.078C612.671,279.933,617.627,281.16,623.578,282.825z
			 M297.543,327.11c0.678-6.838,1.389-12.822,1.741-18.818c0.055-0.93-1.315-2.547-2.408-2.763
			c-4.404-0.872-8.957-1.32-14.227-2.028c0,6.448-0.089,12.141,0.095,17.829c0.028,0.871,1.06,2.182,2.068,2.496
			C288.639,325.018,292.647,325.883,297.543,327.11z M652.038,465.973c0.276-1.456,0.586-2.362,0.596-3.27
			c0.05-4.755,0.023-9.51,0.023-14.721c-5.418-0.574-10.398-1.101-15.379-1.629c-0.553,3.813-1.478,7.625-1.5,11.44
			c-0.011,1.889,0.955,4.835,2.675,5.465C642.477,464.732,647.225,465.095,652.038,465.973z M652.237,350.135
			c1.977-16.133-2.188-21.603-16.101-21.545C633.708,342.966,637.171,347.725,652.237,350.135z M288.653,388.305
			c0-7.363,0-14.249,0-21.239c-4.338,0-8.212,0-12.167,0c0,7.231,0,14.115,0,21.239
			C280.634,388.305,284.347,388.305,288.653,388.305z M288.643,422.243c0-7.25,0-13.974,0-20.738c-4.343,0-8.212,0-12.151,0
			c0,7.103,0,13.835,0,20.738C280.666,422.243,284.413,422.243,288.643,422.243z M288.832,435.681c-4.527,0-8.376,0-12.312,0
			c0,7.149,0,13.867,0,20.67c4.334,0,8.194,0,12.312,0C288.832,449.343,288.832,442.733,288.832,435.681z M636.643,387.028
			c-4.28,13.455-0.134,19.685,13.903,20.58c0-2.408,0-4.782,0-7.155C650.549,390.089,650.549,390.089,636.643,387.028z
			 M636.533,357.65c-3.788,13.276-0.491,18.35,14.015,20.686c0-2.787-0.001-5.427,0-8.067
			C650.55,360.077,650.55,360.077,636.533,357.65z M650.547,437.576c0-3.06,0-6.006,0-8.953c-0.001-9.071,0-9.075-11.742-11.394
			c-0.759-0.15-1.568-0.157-2.327-0.227C632.827,430.535,636.052,435.497,650.547,437.576z"/>
		<path class="st0" d="M1.278,599.498c4.68,0.04,9.359,0.116,14.039,0.116c259.009,0.007,518.018,0.008,777.026,0.003
			c2.978,0,5.956-0.078,8.935-0.119c0,4.153,0,8.307,0,12.46c-266.667,0-533.333,0-800,0C1.278,607.805,1.278,603.652,1.278,599.498
			z"/>
		<path class="st0" d="M384.821,81.69c0,11.135,0.057,20.998-0.095,30.86c-0.014,0.909-1.08,2.31-2.121,2.628
			c-8.198,2.503-16.509,4.798-25.954,7.49c0-10.507-0.061-20.168,0.107-29.826c0.015-0.842,1.299-2.052,2.402-2.442
			C367.175,87.564,375.294,84.896,384.821,81.69z"/>
		<path class="st0" d="M431.058,81.709c10.248,4.406,19.153,8.198,27.974,12.096c0.711,0.314,1.191,1.361,1.197,2.07
			c0.079,9.008,0.052,18.016,0.052,28.209c-9.988-3.912-18.746-7.294-27.409-10.809c-0.896-0.364-1.727-1.514-1.737-2.306
			C431.015,101.651,431.058,92.332,431.058,81.709z"/>
		<path class="st0" d="M509.557,140.034c-9.766-2.717-18.28-5.04-26.723-7.499c-0.946-0.275-2.183-1.363-2.118-2.008
			c0.938-9.298,2.076-18.584,3.227-28.391c9.828,3.503,18.65,6.586,27.362,9.833c1.029,0.384,2.163,1.723,2.057,2.532
			C512.286,122.7,510.961,130.882,509.557,140.034z"/>
		<path class="st0" d="M480.394,144.331c9.19,2.787,17.24,5.154,25.171,7.729c0.942,0.306,1.865,1.802,1.726,2.647
			c-1.525,9.293-3.262,18.566-5.091,28.668c-8.267-2.443-15.525-4.531-22.694-6.777c-0.92-0.288-2.014-1.433-1.956-2.13
			C478.365,164.671,479.365,154.884,480.394,144.331z"/>
		<path class="st0" d="M310.357,140.033c-2.68-8.413-5.174-15.963-7.4-23.558c-0.298-1.016,0.292-2.89,1.263-3.293
			c8.287-3.437,16.756-6.625,25.89-10.167c2.491,9.404,4.87,18.079,6.968,26.792c0.205,0.852-1.013,2.481-2.095,2.828
			C327.201,135.131,319.283,137.389,310.357,140.033z"/>
		<path class="st0" d="M384.858,127.146c0,10.951,0.082,20.353-0.102,29.752c-0.024,1.204-1.01,2.99-2.268,3.488
			c-6.884,2.728-13.991,5.137-22.585,8.216c0-3.978-0.001-6.896,0-9.815c0.002-5.104,0.56-10.251-0.143-15.3
			c-0.751-5.397,2.194-8.17,8.561-10.059C373.693,131.834,378.687,129.527,384.858,127.146z"/>
		<path class="st0" d="M431.036,126.597c8.05,3.043,14.856,5.534,21.523,8.218c1.069,0.43,2.139,1.722,2.155,2.625
			c0.159,9.035,0.096,18.072,0.096,28.108c-7.946-2.662-14.887-4.873-21.642-7.366c-1.125-0.415-2.022-2.058-2.041-3.143
			C430.967,145.971,431.036,136.9,431.036,126.597z"/>
		<path class="st0" d="M431.046,171.385c8.361,3.904,15.2,7.013,21.879,10.305c1.015,0.5,1.811,1.842,1.826,2.802
			c0.138,8.871,0.081,17.744,0.081,27.951c-8.408-3.632-15.644-6.71-22.777-9.917c-0.67-0.301-0.962-1.417-0.967-2.156
			C431.024,191.184,431.046,181.997,431.046,171.385z"/>
		<path class="st0" d="M362.416,256.969c0-10.593-0.041-20.131,0.075-29.669c0.01-0.803,0.81-1.992,1.699-2.334
			c6.342-2.438,12.803-4.702,20.671-7.542c0,4.98,0,8.882,0,12.783c0,4.467-0.46,8.968,0.124,13.391
			c0.672,5.095-1.507,8.077-8.319,9.378C372.231,253.824,368.032,255.365,362.416,256.969z"/>
		<path class="st0" d="M384.864,172.275c0,7.418,0,13.876,0,20.334c0,12.661,0.003,12.668-16.03,16.767
			c-1.757,0.449-3.582,0.749-6.399,1.329c0-10.229-0.063-19.902,0.11-29.573c0.015-0.842,1.348-2.05,2.468-2.437
			C371.112,176.587,377.335,174.682,384.864,172.275z"/>
		<path class="st0" d="M452.491,255.141c-7.302-2.706-13.396-4.84-19.285-7.256c-1.134-0.465-2.052-2.027-2.071-3.093
			c-0.162-9.073-0.092-18.148-0.092-28.674c7.508,3.262,13.984,5.999,20.308,8.92c0.791,0.365,1.085,1.706,1.093,2.598
			C452.522,236.392,452.491,245.148,452.491,255.141z"/>
		<path class="st0" d="M384.827,262.855c0,10.966,0.052,20.804-0.087,30.641c-0.013,0.909-0.946,2.259-1.96,2.637
			c-5.469,2.039-11.099,3.837-17.597,6.029c-0.324-1.965-0.718-3.279-0.728-4.594c-0.054-7.645-0.299-15.301,0.186-22.929
			c0.121-1.9,2.122-4.341,4.259-5.435C373.498,266.851,378.745,265.212,384.827,262.855z"/>
		<path class="st0" d="M431.044,305.84c6.787,3.772,12.197,6.726,17.499,9.786c0.715,0.412,1.241,1.357,1.247,2.058
			c0.081,9.473,0.054,18.947,0.054,29.582c-6.617-3.519-12.101-6.356-17.429-9.35c-0.824-0.463-1.306-1.641-1.314-2.492
			C431.01,326.063,431.044,316.7,431.044,305.84z"/>
		<path class="st0" d="M449.891,302.449c-6.57-3.659-11.767-6.385-16.654-9.393c-1.24-0.763-2.088-2.418-2.113-3.674
			c-0.178-8.891-0.095-17.784-0.095-28.277c6.644,3.968,12.469,6.923,17.298,10.61c1.749,1.335,1.44,4.419,1.507,6.714
			c0.18,6.201,0.058,12.407,0.056,18.61C449.89,298.498,449.891,299.957,449.891,302.449z"/>
		<path class="st0" d="M431.073,351.455c13.897,4.105,14.494,4.727,14.501,14.331c0.006,8.733,0.001,17.467,0.001,27.078
			c-4.667-1.182-8.436-1.994-12.023-3.13c-1.086-0.344-2.363-1.578-2.374-2.413C431.023,375.573,431.073,363.824,431.073,351.455z"
			/>
		<path class="st0" d="M293.073,201.973c8.5,3.444,15.823,6.287,22.927,9.409c1.189,0.523,2.194,2.336,1.984,3.411
			c-0.889,4.563-2.363,9.059-3.432,13.605c-0.64,2.719-2.291,3.497-5.759,2.432c-2.744-0.843-5.625-1.443-8.471-2.088
			c-9.415-2.134-9.471-2.126-8.874-9.639C291.873,213.74,292.458,208.384,293.073,201.973z"/>
		<path class="st0" d="M368.066,392.908c0-10.56-0.056-20.083,0.086-29.605c0.014-0.955,0.902-2.238,1.934-2.792
			c4.257-2.283,8.726-4.343,14.778-7.295c0,3.9,0,6.649,0,9.398c-0.001,6.059-0.342,12.132,0.118,18.171
			c0.296,3.879-1.314,6.335-6.01,7.89C375.718,389.753,372.633,391.12,368.066,392.908z"/>
		<path class="st0" d="M368.091,436.383c0-9.906-0.109-19.691,0.167-29.47c0.028-0.993,2.181-2.181,3.68-2.876
			c3.721-1.727,7.634-3.223,12.924-5.413c0,5.808,0,10.626,0,15.445c0,2.704,0.003,5.408,0.003,8.112
			C384.863,432.151,382.765,434.003,368.091,436.383z"/>
		<path class="st0" d="M368.035,347.26c0-10.48-0.096-19.858,0.119-29.231c0.027-1.191,1.308-2.758,2.65-3.467
			c3.945-2.084,8.213-3.824,13.425-6.184c0.27,2.159,0.598,3.614,0.608,5.07c0.055,7.489-0.272,14.989,0.156,22.464
			c0.218,3.807-1.601,5.957-6.09,7.343C375.645,344.261,372.557,345.577,368.035,347.26z"/>
		<path class="st0" d="M346.877,275.556c0.804,7.226,1.609,13.833,2.26,20.45c1.004,10.194,0.96,10.198-12.712,11.3
			c-1.66,0.134-3.325,0.231-5.963,0.412c0-8.202-0.135-16.088,0.166-23.964c0.039-1.019,2.133-2.237,3.63-2.933
			C338.013,279.077,341.971,277.578,346.877,275.556z"/>
		<path class="st0" d="M337.918,394.823c0-10.727,0-20.715,0-30.999c5.113-0.799,10.055-1.571,16.349-2.555
			c0,3.833,0,7.079,0,10.324c0,5.587-0.233,11.181,0.087,16.757c0.201,3.5-0.996,5.445-6.131,5.499
			C345.097,393.882,341.98,394.419,337.918,394.823z"/>
		<path class="st0" d="M270.718,353.155c-1.305,0.492-1.513,0.645-1.682,0.624c-18.401-2.277-18.401-2.278-18.405-16.09
			c-0.001-3.624,0-7.247,0-11.994c6.904,2.14,12.68,3.878,18.373,5.758c0.785,0.259,1.63,1.221,1.642,1.866
			C270.764,340.079,270.718,346.841,270.718,353.155z"/>
		<path class="st0" d="M250.67,394.067c6.44,1.932,11.623,3.286,16.522,5.074c1.574,0.574,3.348,2.268,3.414,3.499
			c0.342,6.351,0.159,12.717,0.159,19.951c-6.49-1.244-12.197-2.232-17.788-3.506c-1.012-0.231-2.185-1.625-2.206-2.497
			C250.593,409.437,250.67,402.282,250.67,394.067z"/>
		<path class="st0" d="M270.647,251.8c-4.613-0.938-7.654-1.561-10.698-2.174c-9.325-1.877-9.324-1.875-9.32-9.398
			c0.003-5.365,0.001-10.73,0.001-17.077c6.852,2.121,12.633,3.856,18.33,5.736c0.779,0.257,1.603,1.232,1.615,1.883
			C270.692,237.53,270.647,244.293,270.647,251.8z"/>
		<path class="st0" d="M270.731,388.259c-6.655-1.198-11.79-2.034-16.841-3.095c-1.188-0.25-2.972-1.244-2.991-1.92
			c-0.214-7.54-0.135-15.085-0.135-23.431c6.639,2.054,12.076,3.643,17.381,5.451c1.112,0.379,2.448,1.549,2.473,2.375
			C270.82,374.247,270.731,380.86,270.731,388.259z"/>
		<path class="st0" d="M250.874,291.534c6.671,2.049,12.155,3.63,17.49,5.456c1.081,0.37,2.244,1.657,2.27,2.539
			c0.191,6.501,0.103,13.007,0.103,20.364c-6.537-1.182-12.212-2.157-17.834-3.283c-0.809-0.162-1.933-1.048-1.942-1.608
			C250.831,307.441,250.874,299.878,250.874,291.534z"/>
		<path class="st0" d="M250.704,189.71c1.77,0.081,2.217,0.03,2.595,0.129c17.496,4.577,17.496,4.578,17.497,18.465
			c0,2.819,0,5.638,0,9.236c-6.506-1.225-12.036-2.163-17.458-3.374c-1.089-0.243-2.498-1.51-2.52-2.324
			C250.622,204.572,250.704,197.296,250.704,189.71z"/>
		<path class="st0" d="M270.741,285.833c-6.518-1.222-12.038-2.118-17.407-3.373c-1.164-0.272-2.52-1.823-2.55-2.806
			c-0.217-7.111-0.117-14.228-0.117-22.329c6.637,2.081,12.249,3.741,17.713,5.641c1.079,0.375,2.232,1.662,2.258,2.547
			C270.829,271.985,270.741,278.463,270.741,285.833z"/>
		<path class="st0" d="M270.722,456.511c-6.434-1.102-11.642-1.823-16.678-2.967c-1.389-0.315-3.193-1.872-3.233-2.893
			c-0.281-7.14-0.149-14.289-0.149-22.451c6.84,2.104,12.66,3.812,18.353,5.732c0.87,0.293,1.617,1.56,1.634,2.385
			C270.781,442.822,270.722,449.329,270.722,456.511z"/>
		<path class="st0" d="M303.735,298.334c-6.363-2.338-11.521-4.136-16.523-6.149c-1.084-0.436-2.335-1.673-2.283-2.497
			c0.427-6.789,1.142-13.568,1.838-21.08c5.897,1.691,10.892,2.904,15.581,4.593c1.5,0.54,3.142,2.363,3.096,3.563
			C305.178,283.585,304.421,290.396,303.735,298.334z"/>
		<path class="st0" d="M431.044,403.158c4.943,1.369,8.711,2.272,12.288,3.491c1.022,0.348,2.104,1.605,2.119,2.454
			c0.152,9.046,0.094,18.094,0.094,28.191c-4.919-1.338-8.851-2.259-12.577-3.521c-0.97-0.328-1.828-1.715-1.842-2.623
			C430.99,422.243,431.044,413.335,431.044,403.158z"/>
		<path class="st0" d="M461.851,363.004c4.875,0.696,8.807,1.117,12.612,1.891c1.068,0.217,2.498,1.462,2.513,2.249
			c0.177,9.01,0.113,18.023,0.113,27.758c-4.895-0.584-8.835-0.909-12.655-1.604c-1.045-0.19-2.457-1.483-2.472-2.283
			C461.787,381.857,461.851,372.697,461.851,363.004z"/>
		<path class="st0" d="M297.579,359.714c-5.802-0.294-10.668-0.36-15.436-0.908c-1.193-0.137-2.902-1.803-2.953-2.807
			c-0.292-5.714-0.336-11.446,0.003-17.156c0.062-1.042,2.119-2.727,3.527-2.905c13.489-1.711,14.854-0.785,14.858,9.291
			C297.581,349.948,297.579,354.668,297.579,359.714z"/>
		<path class="st0" d="M308.368,262.635c-6.296-1.786-11.648-3.158-16.795-4.875c-1.161-0.387-2.237-1.959-2.282-3.012
			c-0.228-5.385-0.105-10.779-0.105-17.241c6.92,1.226,13.18,2.264,19.364,3.514c0.848,0.171,1.924,1.426,1.865,2.131
			C309.888,249.432,309.13,255.702,308.368,262.635z"/>
		<path class="st0" d="M459.947,403.313c4.878,1.281,8.52,2.048,11.904,3.229c1.17,0.409,2.396,1.839,2.416,2.816
			c0.185,8.903,0.108,17.81,0.108,26.697c-11.2,0.216-14.426-2.053-14.428-9.736C459.946,418.914,459.947,411.508,459.947,403.313z"
			/>
		<path class="st0" d="M657.391,323.728c-7.292-2.413-13.655-4.425-19.865-6.671c-0.983-0.356-1.785-1.765-1.816-2.703
			c-0.173-5.217-0.083-10.44-0.083-16.649c7.297,2.571,13.707,4.76,19.998,7.127c0.887,0.334,1.666,1.531,1.689,2.341
			C657.465,312.378,657.391,317.586,657.391,323.728z"/>
		<path class="st0" d="M340.333,407.207c4.531,0,8.685,0,13.865,0c0,8.682,0.083,17.368-0.148,26.05
			c-0.02,0.744-2.048,1.972-3.285,2.082c-3.295,0.294-6.667,0.1-10.431,0.1C340.333,425.752,340.333,416.625,340.333,407.207z"/>
		<path class="st0" d="M350.035,318.765c1.514,10.376,2.797,19.171,4.17,28.578c-5.593,0.338-10.573,0.639-16.591,1.003
			c0-8.436-0.655-16.54,0.504-24.494C338.376,322.072,344.993,320.813,350.035,318.765z"/>
		<path class="st0" d="M640.11,242.381c7.259,2.573,13.594,4.69,19.718,7.106c1.102,0.435,1.84,2.093,1.888,3.206
			c0.204,4.768,0.087,9.545,0.087,15.722c-7.697-3.37-14.364-6.187-20.83-9.245c-0.826-0.39-0.805-2.028-0.827-3.092
			C640.059,251.82,640.11,247.56,640.11,242.381z"/>
		<path class="st0" d="M657.378,295.997c-3.737-1.573-5.96-2.465-8.126-3.427c-15.286-6.789-15.722-7.517-12.855-22.536
			c6.802,2.524,13.3,4.884,19.702,7.383c0.71,0.277,1.211,1.347,1.225,2.056C657.425,284.657,657.378,289.841,657.378,295.997z"/>
		<path class="st0" d="M623.569,421.685c-5.995-1.753-11.12-3.133-16.069-4.805c-0.935-0.316-1.628-1.791-1.653-2.742
			c-0.151-5.731-0.075-11.466-0.075-18.438c6.256,2.354,11.612,4.329,16.891,6.415c0.54,0.213,0.862,1.086,0.868,1.656
			C623.593,409.47,623.569,415.17,623.569,421.685z"/>
		<path class="st0" d="M605.776,229.342c5.807,2.072,10.664,3.62,15.231,5.552c1.297,0.549,2.418,2.198,2.477,3.374
			c0.264,5.243,0.115,10.498,0.115,16.912c-6.015-1.745-11.258-3.145-16.319-4.849c-0.892-0.3-1.416-1.869-1.439-2.861
			C605.707,241.739,605.776,236.003,605.776,229.342z"/>
		<path class="st0" d="M605.786,451.341c5.895,2.101,10.846,3.784,15.668,5.655c0.947,0.368,1.955,1.455,1.978,2.226
			c0.167,5.668,0.09,11.339,0.09,17.727c-5.801-1.566-10.607-2.71-15.207-4.21c-1.179-0.384-2.379-1.881-2.418-2.891
			C605.67,463.992,605.786,458.129,605.786,451.341z"/>
		<path class="st0" d="M623.53,366.084c-5.889-1.674-10.654-2.913-15.262-4.422c-1.087-0.356-2.312-1.606-2.341-2.466
			c-0.203-5.994-0.107-11.994-0.107-18.667c5.707,1.929,10.552,3.459,15.233,5.229c1.106,0.418,2.335,1.636,2.368,2.509
			C623.633,353.931,623.53,359.601,623.53,366.084z"/>
		<path class="st0" d="M623.571,310.723c-6.037-1.773-10.766-3.056-15.347-4.588c-1.066-0.356-2.289-1.548-2.317-2.376
			c-0.197-5.99-0.106-11.985-0.106-18.969c6.02,2.252,11.1,4.071,16.044,6.079c0.868,0.353,1.631,1.49,1.651,2.277
			C623.638,298.676,623.571,304.208,623.571,310.723z"/>
		<path class="st0" d="M623.588,449.475c-5.907-1.765-10.461-2.991-14.829-4.516c-1.26-0.44-2.79-1.718-2.83-2.645
			c-0.255-5.962-0.13-11.933-0.13-18.672c5.907,2.079,10.883,3.715,15.679,5.608c1.035,0.408,1.987,1.728,2.018,2.646
			C623.681,437.426,623.588,442.96,623.588,449.475z"/>
		<path class="st0" d="M623.469,393.808c-5.836-1.669-10.634-2.847-15.158-4.459c-1.262-0.45-2.371-2.164-2.423-3.327
			c-0.25-5.567-0.112-11.145-0.112-17.966c6.195,2.341,11.531,4.334,16.821,6.394c0.448,0.174,0.832,0.79,0.836,1.203
			C623.487,381.468,623.469,387.283,623.469,393.808z"/>
		<path class="st0" d="M623.598,338.576c-6.016-1.813-10.918-3.176-15.655-4.809c-1.026-0.354-2.042-1.666-2.069-2.554
			c-0.181-5.97-0.094-11.945-0.094-18.699c6.012,2.179,11.15,3.925,16.095,5.936c0.958,0.39,1.621,1.807,1.648,2.762
			C623.678,326.597,623.598,331.986,623.598,338.576z"/>
		<path class="st0" d="M623.578,282.825c-5.951-1.665-10.907-2.891-15.638-4.493c-1.111-0.376-2.03-2.006-2.068-3.078
			c-0.202-5.704-0.095-11.414-0.095-18.062c5.75,2.076,10.691,3.754,15.465,5.666c1.077,0.431,2.2,1.666,2.233,2.553
			C623.679,270.927,623.578,276.448,623.578,282.825z"/>
		<path class="st0" d="M297.543,327.11c-4.897-1.227-8.905-2.093-12.732-3.284c-1.007-0.314-2.039-1.625-2.068-2.496
			c-0.184-5.688-0.095-11.381-0.095-17.829c5.27,0.708,9.823,1.156,14.227,2.028c1.092,0.216,2.462,1.833,2.408,2.763
			C298.933,314.288,298.221,320.272,297.543,327.11z"/>
		<path class="st0" d="M652.038,465.973c-4.813-0.878-9.56-1.241-13.585-2.715c-1.72-0.629-2.686-3.576-2.675-5.465
			c0.023-3.815,0.947-7.627,1.5-11.44c4.981,0.527,9.961,1.055,15.379,1.629c0,5.211,0.027,9.966-0.023,14.721
			C652.624,463.611,652.313,464.517,652.038,465.973z"/>
		<path class="st0" d="M652.237,350.135c-15.066-2.41-18.529-7.169-16.101-21.545C650.05,328.532,654.214,334.002,652.237,350.135z"
			/>
		<path class="st0" d="M288.653,388.305c-4.306,0-8.02,0-12.167,0c0-7.124,0-14.008,0-21.239c3.955,0,7.829,0,12.167,0
			C288.653,374.056,288.653,380.941,288.653,388.305z"/>
		<path class="st0" d="M288.643,422.243c-4.229,0-7.976,0-12.151,0c0-6.903,0-13.635,0-20.738c3.939,0,7.808,0,12.151,0
			C288.643,408.269,288.643,414.993,288.643,422.243z"/>
		<path class="st0" d="M288.832,435.681c0,7.052,0,13.662,0,20.67c-4.118,0-7.978,0-12.312,0c0-6.803,0-13.521,0-20.67
			C280.456,435.681,284.304,435.681,288.832,435.681z"/>
		<path class="st0" d="M636.643,387.028c13.905,3.061,13.905,3.061,13.903,13.425c0,2.374,0,4.748,0,7.155
			C636.51,406.712,632.363,400.483,636.643,387.028z"/>
		<path class="st0" d="M636.533,357.65c14.018,2.427,14.017,2.427,14.015,12.619c-0.001,2.64,0,5.28,0,8.067
			C636.042,376,632.745,370.926,636.533,357.65z"/>
		<path class="st0" d="M650.547,437.576c-14.495-2.08-17.72-7.042-14.069-20.574c0.76,0.071,1.568,0.078,2.327,0.227
			c11.742,2.319,11.741,2.323,11.742,11.394C650.547,431.57,650.547,434.517,650.547,437.576z"/>
	</g>
</g>
</svg>
